<svg xmlns="http://www.w3.org/2000/svg" viewBox="0 0 100 28.38"><g id="Calque_2" data-name="Calque 2"><g id="Calque_1-2" data-name="Calque 1"><path d="M95.24,14.59a9.89,9.89,0,0,0-3.9-2.28,9.09,9.09,0,0,1-2.43-1.2A1.45,1.45,0,0,1,88.36,10,1.28,1.28,0,0,1,89,8.9a2.82,2.82,0,0,1,1.61-.43,3.89,3.89,0,0,1,2.45.86,5.5,5.5,0,0,1,1.71,2.41h.62V7.51h-.62a1.45,1.45,0,0,1-.82.4c-.1,0-.41,0-.91-.1a20.16,20.16,0,0,0-2.67-.3A4.92,4.92,0,0,0,87,8.7a3.83,3.83,0,0,0-1.32,3,3.59,3.59,0,0,0,.88,2.46,9.54,9.54,0,0,0,3.62,2.07A9.27,9.27,0,0,1,93,17.67a2.06,2.06,0,0,1,.65,1.51,1.76,1.76,0,0,1-.71,1.39,2.61,2.61,0,0,1-1.69.58q-2.88,0-4.9-4.26h-.61v5.22h.61a1.58,1.58,0,0,1,1.24-.47,8.64,8.64,0,0,1,1.57.24,11.1,11.1,0,0,0,2.23.23,4.88,4.88,0,0,0,3.38-1.36,4.29,4.29,0,0,0,1.5-3.31,4.27,4.27,0,0,0-1-2.85" style="fill:#d81f37"/><polygon points="20.44 0.01 14.96 0.01 4.38 10.59 4.38 0 0 0 0 22.65 4.38 22.65 4.38 15.94 16.82 28.39 19.56 25.65 7.18 13.27 20.44 0.01" style="fill:#d81f37"/><polygon points="61.03 1.03 55.95 1.03 46.12 10.85 46.12 1.02 42.06 1.02 42.06 22.65 46.12 22.65 46.12 15.81 57.67 27.36 60.21 24.82 48.72 13.33 61.03 1.03" style="fill:#d81f37"/><path d="M65.61,20.61a4.22,4.22,0,0,1-3.42-1.72,6.89,6.89,0,0,1-1.38-4.46c0-.18,0,.43,0,.24H71.06c-.24-1.85-1-4.13-2.28-5.24A7.1,7.1,0,0,0,64,7.78a7.36,7.36,0,0,0-5.36,2.11,7,7,0,0,0-2.16,5.27,6.9,6.9,0,0,0,2.1,5.15,7.32,7.32,0,0,0,5.28,2.06,7.84,7.84,0,0,0,4.37-1.26,7.37,7.37,0,0,0,2.85-3.44h-.61a5.65,5.65,0,0,1-4.84,2.94M63.76,9.05c3.07,0,2.95,4.8,2.95,4.8h-5.9s-.12-4.8,2.95-4.8" style="fill:#d81f37"/><path d="M39.86,17.67A5.65,5.65,0,0,1,35,20.61a4.22,4.22,0,0,1-3.42-1.72,6.49,6.49,0,0,1-1.35-3.7c0-.16,0-.32,0-.49v-.11c0-.25,0-.5,0-.74C30.36,12.34,31.41,9,34.68,9c2,0,3.69.93,5,3.66h.61V7.78h-.87a1.66,1.66,0,0,1-1.07.44A14,14,0,0,1,36.53,8a18.25,18.25,0,0,0-2.66-.23h-.48A7.37,7.37,0,0,0,28,9.9a7.29,7.29,0,0,0-1.37,1.84,7.44,7.44,0,0,0-.79,3.43A6.85,6.85,0,0,0,28,20.31a7,7,0,0,0,3.95,2,10.4,10.4,0,0,0,1.37.1,7.89,7.89,0,0,0,4.33-1.26,7.32,7.32,0,0,0,2.63-3c.08-.16.15-.31.22-.48h-.62Z" style="fill:#d81f37"/><path d="M20.86,7A1.6,1.6,0,0,0,22,6.51a1.69,1.69,0,0,0,.49-1.2A1.59,1.59,0,0,0,22,4.13a1.64,1.64,0,0,0-1.18-.49,1.69,1.69,0,0,0-1.2.49,1.6,1.6,0,0,0-.49,1.18,1.58,1.58,0,0,0,.5,1.19,1.58,1.58,0,0,0,1.19.5" style="fill:#d81f37"/><path d="M23.16,20.58a2.37,2.37,0,0,1-.38-1.38V8.59H16.29v.62a3.81,3.81,0,0,1,2,.77,2.44,2.44,0,0,1,.47,1.73c0,1.25,0,8.05,0,8.1a2.26,2.26,0,0,0,2.58,2.29H25v-.61a2.41,2.41,0,0,1-1.81-.91" style="fill:#d81f37"/><path d="M83,8.05c-3.22,0-4.55,4.31-4.55,4.31V8.59H71.93v.62h0a2.79,2.79,0,0,1,1.88.73,2.73,2.73,0,0,1,.59,1.91V19a2.46,2.46,0,0,1-.47,1.68,3.5,3.5,0,0,1-1.79.82v.61h8.61v-.61a3.61,3.61,0,0,1-1.84-.73A2.62,2.62,0,0,1,78.46,19V13.46a3.55,3.55,0,0,1,3-1.92A4.43,4.43,0,0,1,84,12.81l.88-4.22A4.56,4.56,0,0,0,83,8.05" style="fill:#d81f37"/><path d="M96.6,5.37h0a1.7,1.7,0,1,1,3.4,0h0a1.7,1.7,0,0,1-3.4,0m3.2,0h0a1.51,1.51,0,1,0-3-.07v.08h0a1.51,1.51,0,0,0,3,.06V5.36m-2.25-.93h.86c.44,0,.76.18.76.61a.57.57,0,0,1-.37.56l.43.63h-.59l-.36-.54h-.22v.54h-.51V4.43Zm.84.86c.17,0,.27-.09.27-.22s-.1-.21-.27-.21h-.33v.43Z" style="fill:#d81f37"/></g></g></svg>